<?xml version="1.0" standalone="no"?>
<!DOCTYPE svg PUBLIC "-//W3C//DTD SVG 1.1//EN" "http://www.w3.org/Graphics/SVG/1.1/DTD/svg11.dtd">
<svg width="100%" height="100%" viewBox="0 0 55 55" version="1.1" xmlns="http://www.w3.org/2000/svg" xmlns:xlink="http://www.w3.org/1999/xlink" xml:space="preserve" style="fill-rule:evenodd;clip-rule:evenodd;stroke-linejoin:round;stroke-miterlimit:1.41421;">
    <path d="M47.422,38.203C43.628,45.326 36.134,50.173 27.496,50.186C15.036,50.167 4.952,40.082 4.93,27.619C4.952,15.157 15.036,5.072 27.496,5.051C39.961,5.072 50.045,15.155 50.064,27.617C50.059,31.156 49.242,34.504 47.789,37.484L47.789,38.203L47.422,38.203ZM38.223,36.322L38.077,35.084C38.365,35.162 38.616,35.201 38.831,35.201C39.124,35.201 39.359,35.152 39.534,35.055C39.71,34.957 39.854,34.82 39.966,34.644C40.049,34.513 40.184,34.186 40.369,33.663C40.394,33.59 40.433,33.482 40.487,33.341L37.535,25.548L38.956,25.548L40.574,30.052C40.784,30.624 40.972,31.224 41.138,31.854C41.29,31.249 41.47,30.658 41.68,30.082L43.343,25.548L44.661,25.548L41.702,33.458C41.385,34.312 41.138,34.901 40.963,35.223C40.728,35.658 40.46,35.976 40.157,36.179C39.854,36.382 39.493,36.483 39.073,36.483C38.819,36.483 38.536,36.429 38.223,36.322ZM29.156,33.326C28.99,33.028 28.879,32.717 28.823,32.392C28.767,32.068 28.738,31.292 28.738,30.067L28.738,28.309C28.738,27.723 28.716,27.318 28.673,27.093C28.594,26.732 28.458,26.433 28.262,26.196C28.067,25.959 27.762,25.763 27.347,25.606C26.932,25.45 26.392,25.372 25.728,25.372C25.059,25.372 24.471,25.464 23.963,25.647C23.455,25.83 23.067,26.091 22.799,26.43C22.53,26.77 22.337,27.215 22.22,27.767L23.509,27.943C23.651,27.391 23.869,27.007 24.164,26.789C24.46,26.572 24.918,26.463 25.538,26.463C26.202,26.463 26.702,26.612 27.039,26.91C27.288,27.13 27.413,27.508 27.413,28.045C27.413,28.094 27.41,28.209 27.405,28.39C26.903,28.565 26.119,28.717 25.054,28.844C24.532,28.907 24.141,28.973 23.883,29.041C23.531,29.139 23.215,29.283 22.934,29.474C22.653,29.664 22.426,29.917 22.253,30.232C22.08,30.547 21.993,30.894 21.993,31.275C21.993,31.925 22.222,32.458 22.681,32.876C23.14,33.293 23.797,33.502 24.652,33.502C25.169,33.502 25.654,33.416 26.105,33.246C26.557,33.075 27.027,32.782 27.515,32.367C27.554,32.733 27.642,33.053 27.779,33.326L29.156,33.326ZM30.255,31.004L31.558,30.799C31.632,31.322 31.835,31.722 32.17,32C32.504,32.279 32.972,32.418 33.572,32.418C34.178,32.418 34.627,32.295 34.92,32.048C35.213,31.801 35.36,31.512 35.36,31.18C35.36,30.882 35.23,30.648 34.971,30.477C34.791,30.36 34.341,30.211 33.624,30.03C32.657,29.786 31.987,29.575 31.613,29.397C31.24,29.218 30.956,28.972 30.764,28.657C30.571,28.342 30.474,27.994 30.474,27.613C30.474,27.267 30.554,26.946 30.712,26.65C30.871,26.355 31.087,26.109 31.361,25.914C31.566,25.763 31.845,25.634 32.199,25.53C32.553,25.425 32.933,25.372 33.338,25.372C33.948,25.372 34.484,25.46 34.946,25.636C35.407,25.811 35.748,26.05 35.967,26.35C36.187,26.65 36.339,27.052 36.422,27.555L35.133,27.73C35.074,27.33 34.904,27.018 34.623,26.793C34.343,26.568 33.946,26.456 33.433,26.456C32.828,26.456 32.396,26.556 32.137,26.756C31.878,26.957 31.749,27.191 31.749,27.459C31.749,27.63 31.802,27.784 31.91,27.921C32.017,28.062 32.186,28.18 32.415,28.272C32.547,28.321 32.935,28.434 33.58,28.609C34.512,28.858 35.163,29.062 35.532,29.221C35.9,29.38 36.19,29.61 36.4,29.913C36.61,30.216 36.715,30.592 36.715,31.041C36.715,31.48 36.586,31.894 36.33,32.282C36.074,32.671 35.704,32.971 35.22,33.183C34.737,33.396 34.19,33.502 33.58,33.502C32.569,33.502 31.799,33.292 31.269,32.872C30.739,32.452 30.401,31.83 30.255,31.004ZM20.645,33.326L20.645,32.059L14.053,32.059L14.053,28.404L19.993,28.404L19.993,27.144L14.053,27.144L14.053,23.856L20.396,23.856L20.396,22.589L12.633,22.589L12.633,33.326L20.645,33.326ZM27.405,29.422C26.927,29.618 26.209,29.784 25.252,29.92C24.71,29.999 24.327,30.086 24.102,30.184C23.878,30.282 23.704,30.425 23.582,30.613C23.46,30.801 23.399,31.009 23.399,31.239C23.399,31.59 23.532,31.883 23.798,32.118C24.064,32.352 24.454,32.469 24.966,32.469C25.474,32.469 25.926,32.358 26.321,32.136C26.717,31.914 27.008,31.61 27.193,31.224C27.335,30.926 27.405,30.487 27.405,29.906L27.405,29.422Z" style="fill:white;"/>
</svg>
