<?xml version="1.0" standalone="no"?>
<!DOCTYPE svg PUBLIC "-//W3C//DTD SVG 1.1//EN" "http://www.w3.org/Graphics/SVG/1.1/DTD/svg11.dtd">
<svg width="100%" height="100%" viewBox="0 0 55 55" version="1.1" xmlns="http://www.w3.org/2000/svg" xmlns:xlink="http://www.w3.org/1999/xlink" xml:space="preserve" style="fill-rule:evenodd;clip-rule:evenodd;stroke-linejoin:round;stroke-miterlimit:1.41421;">
    <path d="M47.422,38.203C43.628,45.326 36.134,50.173 27.496,50.186C15.036,50.167 4.952,40.082 4.93,27.619C4.952,15.157 15.036,5.072 27.496,5.051C39.961,5.072 50.045,15.155 50.064,27.617C50.059,31.156 49.242,34.504 47.789,37.484L47.789,38.203L47.422,38.203ZM12.12,29.876L13.46,29.759C13.524,30.296 13.671,30.737 13.903,31.081C14.135,31.426 14.495,31.704 14.984,31.916C15.472,32.129 16.021,32.235 16.632,32.235C17.174,32.235 17.652,32.154 18.067,31.993C18.482,31.832 18.791,31.611 18.994,31.33C19.196,31.05 19.298,30.743 19.298,30.411C19.298,30.074 19.2,29.78 19.005,29.529C18.809,29.277 18.487,29.066 18.038,28.895C17.75,28.783 17.112,28.608 16.126,28.371C15.14,28.134 14.449,27.911 14.053,27.701C13.541,27.433 13.159,27.099 12.907,26.701C12.656,26.303 12.53,25.858 12.53,25.365C12.53,24.823 12.684,24.316 12.991,23.845C13.299,23.374 13.748,23.016 14.339,22.772C14.93,22.528 15.587,22.406 16.309,22.406C17.105,22.406 17.807,22.534 18.415,22.79C19.023,23.047 19.49,23.424 19.818,23.922C20.145,24.42 20.32,24.984 20.345,25.614L18.983,25.716C18.909,25.038 18.662,24.525 18.239,24.178C17.817,23.832 17.193,23.658 16.368,23.658C15.508,23.658 14.882,23.816 14.489,24.131C14.096,24.446 13.9,24.825 13.9,25.269C13.9,25.655 14.039,25.973 14.317,26.222C14.591,26.471 15.305,26.726 16.459,26.987C17.614,27.248 18.406,27.477 18.836,27.672C19.461,27.96 19.923,28.325 20.22,28.767C20.518,29.209 20.667,29.718 20.667,30.294C20.667,30.865 20.504,31.404 20.176,31.909C19.849,32.414 19.379,32.807 18.767,33.088C18.154,33.369 17.464,33.509 16.697,33.509C15.726,33.509 14.912,33.368 14.255,33.084C13.598,32.801 13.083,32.375 12.709,31.806C12.336,31.238 12.139,30.594 12.12,29.876ZM40.01,30.477L41.307,30.645C41.165,31.539 40.803,32.238 40.219,32.744C39.636,33.249 38.919,33.502 38.07,33.502C37.005,33.502 36.149,33.154 35.502,32.458C34.855,31.762 34.532,30.765 34.532,29.466C34.532,28.626 34.671,27.892 34.949,27.262C35.228,26.632 35.651,26.159 36.22,25.844C36.789,25.53 37.408,25.372 38.077,25.372C38.922,25.372 39.612,25.586 40.15,26.013C40.687,26.44 41.031,27.047 41.182,27.833L39.901,28.031C39.779,27.508 39.562,27.115 39.252,26.852C38.942,26.588 38.568,26.456 38.128,26.456C37.464,26.456 36.924,26.694 36.509,27.17C36.094,27.646 35.887,28.399 35.887,29.43C35.887,30.475 36.087,31.234 36.487,31.707C36.888,32.181 37.41,32.418 38.055,32.418C38.572,32.418 39.005,32.259 39.351,31.942C39.698,31.624 39.918,31.136 40.01,30.477ZM23.992,25.548L23.992,22.831L22.681,23.622L22.681,25.548L21.715,25.548L21.715,26.573L22.681,26.573L22.681,31.048C22.681,31.839 22.735,32.358 22.842,32.605C22.95,32.851 23.135,33.05 23.399,33.202C23.663,33.353 24.034,33.429 24.512,33.429C24.805,33.429 25.137,33.39 25.508,33.311L25.318,32.147C25.079,32.181 24.886,32.198 24.739,32.198C24.544,32.198 24.394,32.166 24.289,32.103C24.184,32.04 24.108,31.954 24.062,31.847C24.016,31.739 23.992,31.498 23.992,31.122L23.992,26.573L25.318,26.573L25.318,25.548L23.992,25.548ZM43.987,25.548L43.987,22.831L42.676,23.622L42.676,25.548L41.71,25.548L41.71,26.573L42.676,26.573L42.676,31.048C42.676,31.839 42.73,32.358 42.838,32.605C42.945,32.851 43.131,33.05 43.394,33.202C43.658,33.353 44.029,33.429 44.508,33.429C44.8,33.429 45.133,33.39 45.504,33.311L45.313,32.147C45.074,32.181 44.881,32.198 44.735,32.198C44.539,32.198 44.389,32.166 44.284,32.103C44.179,32.04 44.103,31.954 44.057,31.847C44.011,31.739 43.987,31.498 43.987,31.122L43.987,26.573L45.313,26.573L45.313,25.548L43.987,25.548ZM27.911,33.326L27.911,29.254C27.911,28.697 27.984,28.185 28.131,27.716C28.228,27.408 28.392,27.168 28.621,26.994C28.851,26.821 29.11,26.734 29.398,26.734C29.72,26.734 30.042,26.83 30.364,27.02L30.819,25.797C30.36,25.514 29.908,25.372 29.464,25.372C29.156,25.372 28.874,25.46 28.618,25.636C28.361,25.811 28.082,26.175 27.779,26.727L27.779,25.548L26.592,25.548L26.592,33.326L27.911,33.326ZM32.928,33.326L32.928,25.548L31.61,25.548L31.61,33.326L32.928,33.326ZM32.928,24.105L32.928,22.589L31.61,22.589L31.61,24.105L32.928,24.105Z" style="fill:white;"/>
</svg>
