<?xml version="1.0" standalone="no"?>
<!DOCTYPE svg PUBLIC "-//W3C//DTD SVG 1.1//EN" "http://www.w3.org/Graphics/SVG/1.1/DTD/svg11.dtd">
<svg width="100%" height="100%" viewBox="0 0 55 55" version="1.1" xmlns="http://www.w3.org/2000/svg" xmlns:xlink="http://www.w3.org/1999/xlink" xml:space="preserve" style="fill-rule:evenodd;clip-rule:evenodd;stroke-linejoin:round;stroke-miterlimit:1.41421;">
    <path d="M47.422,38.203C43.628,45.326 36.134,50.173 27.496,50.186C15.036,50.167 4.952,40.082 4.93,27.619C4.952,15.157 15.036,5.072 27.496,5.051C39.961,5.072 50.045,15.155 50.064,27.617C50.059,31.156 49.242,34.504 47.789,37.484L47.789,38.203L47.422,38.203ZM15.306,28.019C15.226,26.846 15.304,25.662 15.54,24.511C15.795,23.265 16.236,22.058 16.844,20.94C17.516,19.704 18.389,18.579 19.419,17.621C20.412,16.696 21.549,15.927 22.779,15.353C23.89,14.834 25.074,14.475 26.286,14.289C26.886,14.198 27.49,14.152 28.096,14.141C28.264,14.139 28.432,14.141 28.6,14.144C29.204,14.163 29.806,14.216 30.403,14.315C31.611,14.515 32.789,14.889 33.892,15.421C35.208,16.055 36.414,16.913 37.446,17.946C38.442,18.941 39.275,20.098 39.902,21.358C40.447,22.453 40.834,23.625 41.049,24.829C41.301,26.238 41.319,27.69 41.103,29.106C40.901,30.422 40.495,31.705 39.902,32.897C39.206,34.298 38.254,35.569 37.11,36.635C35.923,37.739 34.532,38.62 33.024,39.215C31.923,39.649 30.764,39.929 29.588,40.049L29.588,37.23L21.106,41.471L29.588,45.711L29.588,42.058C31.076,41.926 32.543,41.573 33.928,41.007C35.658,40.3 37.251,39.265 38.603,37.975C39.909,36.73 40.989,35.25 41.773,33.624C42.442,32.237 42.893,30.747 43.107,29.222C43.336,27.587 43.295,25.914 42.984,24.293C42.718,22.907 42.255,21.561 41.611,20.306C40.843,18.808 39.822,17.442 38.603,16.28C37.427,15.159 36.069,14.229 34.596,13.541C33.313,12.941 31.945,12.526 30.544,12.312C29.853,12.206 29.157,12.154 28.458,12.141C28.264,12.139 28.264,12.139 28.071,12.141C27.372,12.154 26.675,12.206 25.984,12.312C24.584,12.526 23.215,12.941 21.932,13.541C20.459,14.229 19.101,15.159 17.925,16.28C16.707,17.442 15.685,18.808 14.917,20.306C14.274,21.561 13.81,22.907 13.544,24.293C13.309,25.518 13.228,26.773 13.302,28.019L15.306,28.019Z" style="fill:white;"/>
    <path d="M23.652,28.559L23.689,28.633L23.616,28.633L23.652,28.559Z" style="fill:rgb(26,26,26);"/>
</svg>
